<svg id="kity_svg_6" xmlns="http://www.w3.org/2000/svg" xmlns:xlink="http://www.w3.org/1999/xlink" version="1.1" width="911" height="867" style="background: rgb(251, 251, 251); visibility: visible;" viewBox="0 0 911 867"><defs id="kity_defs_7"><linearGradient id="kity_linearGradient_17" x1="0" y1="0" x2="0" y2="1"><stop id="kity_stop_18" offset="0" stop-color="rgb(255, 255, 255)"></stop><stop id="kity_stop_19" offset="1" stop-color="rgb(204, 204, 204)"></stop></linearGradient><marker id="kity_marker_2" orient="auto" refX="6" refY="0" viewBox="-7 -7 14 14" markerWidth="7" markerHeight="7" markerUnits="userSpaceOnUse"><path id="kity_path_3" fill="rgb(115, 161, 191)" stroke="none" d="M6,0A6,6,0,1,1,-6,0A6,6,0,1,1,6,0"></path></marker></defs><g id="kity_g_8"><g id="minder1" text-rendering="optimize-speed"><g id="minder_connect_group1"><path id="kity_path_39" fill="none" stroke="rgb(115, 161, 191)" stroke-width="1" d="M114.5,378.5A133,217,0,0,1,247.5,161.5"></path><path id="kity_path_47" fill="none" stroke="rgb(115, 161, 191)" stroke-width="1" d="M114.5,378.5A101,236,0,0,0,215.5,614.5"></path><path id="kity_path_226" fill="none" stroke="rgb(115, 161, 191)" stroke-width="1" d="M501.5,97.5C516.5,97.5,516.5,45.5,531.5,45.5L583.5,45.5"></path><path id="kity_path_227" fill="none" stroke="rgb(115, 161, 191)" stroke-width="1" d="M501.5,97.5C516.5,97.5,516.5,97.5,531.5,97.5L587.5,97.5"></path><path id="kity_path_228" fill="none" stroke="rgb(115, 161, 191)" stroke-width="1" d="M501.5,97.5C516.5,97.5,516.5,149.5,531.5,149.5L646.5,149.5"></path><path id="kity_path_229" fill="none" stroke="rgb(115, 161, 191)" stroke-width="1" d="M370.5,161.5C385.5,161.5,385.5,97.5,400.5,97.5L501.5,97.5"></path><path id="kity_path_230" fill="none" stroke="rgb(115, 161, 191)" stroke-width="1" d="M497.5,253.5C512.5,253.5,512.5,201.5,527.5,201.5L605.5,201.5"></path><path id="kity_path_231" fill="none" stroke="rgb(115, 161, 191)" stroke-width="1" d="M497.5,253.5C512.5,253.5,512.5,253.5,527.5,253.5L624.5,253.5"></path><path id="kity_path_232" fill="none" stroke="rgb(115, 161, 191)" stroke-width="1" d="M497.5,253.5C512.5,253.5,512.5,305.5,527.5,305.5L584.5,305.5"></path><path id="kity_path_233" fill="none" stroke="rgb(115, 161, 191)" stroke-width="1" d="M370.5,161.5C385.5,161.5,385.5,253.5,400.5,253.5L497.5,253.5"></path><path id="kity_path_373" fill="none" stroke="rgb(115, 161, 191)" stroke-width="1" d="M461.5,503.5C476.5,503.5,476.5,367.5,491.5,367.5L549.5,367.5"></path><path id="kity_path_374" fill="none" stroke="rgb(115, 161, 191)" stroke-width="1" d="M461.5,503.5C476.5,503.5,476.5,419.5,491.5,419.5L585.5,419.5"></path><path id="kity_path_375" fill="none" stroke="rgb(115, 161, 191)" stroke-width="1" d="M461.5,503.5C476.5,503.5,476.5,471.5,491.5,471.5L553.5,471.5"></path><path id="kity_path_376" fill="none" stroke="rgb(115, 161, 191)" stroke-width="1" d="M461.5,503.5C476.5,503.5,476.5,523.5,491.5,523.5L592.5,523.5"></path><path id="kity_path_377" fill="none" stroke="rgb(115, 161, 191)" stroke-width="1" d="M461.5,503.5C476.5,503.5,476.5,575.5,491.5,575.5L639.5,575.5"></path><path id="kity_path_378" fill="none" stroke="rgb(115, 161, 191)" stroke-width="1" d="M461.5,503.5C476.5,503.5,476.5,639.5,491.5,639.5L646.5,639.5"></path><path id="kity_path_379" fill="none" stroke="rgb(115, 161, 191)" stroke-width="1" d="M326.5,614.5C341.5,614.5,341.5,503.5,356.5,503.5L461.5,503.5"></path><path id="kity_path_380" fill="none" stroke="rgb(115, 161, 191)" stroke-width="1" d="M548.5,753.5C563.5,753.5,563.5,691.5,578.5,691.5L679.5,691.5"></path><path id="kity_path_381" fill="none" stroke="rgb(115, 161, 191)" stroke-width="1" d="M761.5,804.5C776.5,804.5,776.5,795.5,791.5,795.5L869.5,795.5"></path><path id="kity_path_382" fill="none" stroke="rgb(115, 161, 191)" stroke-width="1" d="M548.5,753.5C563.5,753.5,563.5,804.5,578.5,804.5L761.5,804.5"></path><path id="kity_path_383" fill="none" stroke="rgb(115, 161, 191)" stroke-width="1" d="M326.5,614.5C341.5,614.5,341.5,753.5,356.5,753.5L548.5,753.5"></path><path id="kity_path_385" fill="none" stroke="rgb(115, 161, 191)" stroke-width="1" d="M761.5,804.5C776.5,804.5,776.5,847.5,791.5,847.5L891.5,847.5"></path><path id="kity_path_393" fill="none" stroke="rgb(115, 161, 191)" stroke-width="1" d="M761.5,804.5C776.5,804.5,776.5,743.5,791.5,743.5L856.5,743.5"></path></g><g id="minder_node1"><path id="node_outline1" fill="rgb(115, 161, 191)" stroke="rgb(115, 161, 191)" d="M25.5,358.5h178a5,5,0,0,1,5,5v30a5,5,0,0,1,-5,5h-178a5,5,0,0,1,-5,-5v-30a5,5,0,0,1,5,-5z" stroke-width="3"></path><g id="node_text1" fill="white"><text id="kity_text_22" text-rendering="inherit" font-size="16" dy=".8em" y="368.09999990463257" x="44.5">face anti-spoofing</text></g></g><g id="kity_g_14" display="none"><path id="kity_path_15" fill="rgba(0, 92, 153, 0.5)" stroke="none" d="M801.5,698.5h68v15h-68z"></path><path id="kity_path_16" fill="none" stroke="rgb(0, 76, 128)" d="M801.5,713.5L869.5,713.5" stroke-width="1"></path></g><g id="minder_node3" opacity="1"><g id="node_expander2" style="cursor: pointer;"><path id="kity_path_44" fill="white" stroke="gray" d="M248.5,161.5A6,6,0,1,1,236.5,161.5A6,6,0,1,1,248.5,161.5"></path><path id="kity_path_45" fill="none" stroke="gray" d="M238,161.5L247,161.5"></path></g><path id="node_outline3" fill="rgb(238, 243, 246)" stroke="rgb(115, 161, 191)" d="M252.5,148.5h115a3,3,0,0,1,3,3v20a3,3,0,0,1,-3,3h-115a3,3,0,0,1,-3,-3v-20a3,3,0,0,1,3,-3z" stroke-width="1"></path><g id="node_text3" fill="black"><text id="kity_text_41" text-rendering="inherit" font-size="14" dy=".8em" y="152.40000009536743" x="269.5">handcrafted</text></g></g><g id="minder_node4" opacity="1"><g id="node_expander3" style="cursor: pointer;"><path id="kity_path_52" fill="white" stroke="gray" d="M339.5,614.5A6,6,0,1,1,327.5,614.5A6,6,0,1,1,339.5,614.5"></path><path id="kity_path_53" fill="none" stroke="gray" d="M329,614.5L338,614.5"></path></g><path id="node_outline4" fill="rgb(238, 243, 246)" stroke="rgb(115, 161, 191)" d="M220.5,601.5h103a3,3,0,0,1,3,3v20a3,3,0,0,1,-3,3h-103a3,3,0,0,1,-3,-3v-20a3,3,0,0,1,3,-3z" stroke-width="1"></path><g id="node_text4" fill="black"><text id="kity_text_49" text-rendering="inherit" font-size="14" dy=".8em" y="605.4000000953674" x="237.5">cnn based</text></g></g><g id="minder_node9"><g id="node_expander8" style="cursor: pointer;" display="none"><path id="kity_path_92" fill="white" stroke="gray" d="M541.5,31.5A6,6,0,1,1,529.5,31.5A6,6,0,1,1,541.5,31.5"></path><path id="kity_path_93" fill="none" stroke="gray"></path></g><path id="node_outline9" fill="none" stroke="none" d="M546.5,20.5h32a5,5,0,0,1,5,5v12a5,5,0,0,1,-5,5h-32a5,5,0,0,1,-5,-5v-12a5,5,0,0,1,5,-5z" stroke-width="3"></path><g id="node_text9" fill="black"><text id="kity_text_89" text-rendering="inherit" font-size="12" dy=".8em" y="23.700000047683716" x="551.5">LBP</text></g></g><g id="minder_node10"><g id="node_expander9" style="cursor: pointer;" display="none"><path id="kity_path_100" fill="white" stroke="gray" d="M541.5,83.5A6,6,0,1,1,529.5,83.5A6,6,0,1,1,541.5,83.5"></path><path id="kity_path_101" fill="none" stroke="gray"></path></g><path id="node_outline10" fill="none" stroke="none" d="M546.5,72.5h36a5,5,0,0,1,5,5v12a5,5,0,0,1,-5,5h-36a5,5,0,0,1,-5,-5v-12a5,5,0,0,1,5,-5z" stroke-width="3"></path><g id="node_text10" fill="black"><text id="kity_text_97" text-rendering="inherit" font-size="12" dy=".8em" y="75.70000004768372" x="551.5">DoG</text></g></g><g id="minder_node11"><g id="node_expander10" style="cursor: pointer;" display="none"><path id="kity_path_108" fill="white" stroke="gray" d="M541.5,135.5A6,6,0,1,1,529.5,135.5A6,6,0,1,1,541.5,135.5"></path><path id="kity_path_109" fill="none" stroke="gray"></path></g><path id="node_outline11" fill="none" stroke="none" d="M546.5,124.5h95a5,5,0,0,1,5,5v12a5,5,0,0,1,-5,5h-95a5,5,0,0,1,-5,-5v-12a5,5,0,0,1,5,-5z" stroke-width="3"></path><g id="node_text11" fill="black"><text id="kity_text_105" text-rendering="inherit" font-size="12" dy=".8em" y="127.70000004768372" x="551.5">Colour Texture</text></g></g><g id="minder_node5"><g id="node_expander4" style="cursor: pointer;"><path id="kity_path_60" fill="white" stroke="gray" d="M410.5,83.5A6,6,0,1,1,398.5,83.5A6,6,0,1,1,410.5,83.5"></path><path id="kity_path_61" fill="none" stroke="gray" d="M400,83.5L409,83.5"></path></g><path id="node_outline5" fill="none" stroke="none" d="M415.5,72.5h81a5,5,0,0,1,5,5v12a5,5,0,0,1,-5,5h-81a5,5,0,0,1,-5,-5v-12a5,5,0,0,1,5,-5z" stroke-width="3"></path><g id="node_text5" fill="black"><text id="kity_text_57" text-rendering="inherit" font-size="12" dy=".8em" y="75.70000004768372" x="420.5">single frame</text></g></g><g id="minder_node12"><g id="node_expander11" style="cursor: pointer;" display="none"><path id="kity_path_116" fill="white" stroke="gray" d="M537.5,187.5A6,6,0,1,1,525.5,187.5A6,6,0,1,1,537.5,187.5"></path><path id="kity_path_117" fill="none" stroke="gray"></path></g><path id="node_outline12" fill="none" stroke="none" d="M542.5,176.5h58a5,5,0,0,1,5,5v12a5,5,0,0,1,-5,5h-58a5,5,0,0,1,-5,-5v-12a5,5,0,0,1,5,-5z" stroke-width="3"></path><g id="node_text12" fill="black"><text id="kity_text_113" text-rendering="inherit" font-size="12" dy=".8em" y="179.70000004768372" x="547.5">Eyeblink</text></g></g><g id="minder_node13"><g id="node_expander12" style="cursor: pointer;" display="none"><path id="kity_path_124" fill="white" stroke="gray" d="M537.5,239.5A6,6,0,1,1,525.5,239.5A6,6,0,1,1,537.5,239.5"></path><path id="kity_path_125" fill="none" stroke="gray"></path></g><path id="node_outline13" fill="none" stroke="none" d="M542.5,228.5h77a5,5,0,0,1,5,5v12a5,5,0,0,1,-5,5h-77a5,5,0,0,1,-5,-5v-12a5,5,0,0,1,5,-5z" stroke-width="3"></path><g id="node_text13" fill="black"><text id="kity_text_121" text-rendering="inherit" font-size="12" dy=".8em" y="231.70000004768372" x="547.5">DMD + LBP</text></g></g><g id="minder_node14"><g id="node_expander13" style="cursor: pointer;" display="none"><path id="kity_path_132" fill="white" stroke="gray" d="M537.5,291.5A6,6,0,1,1,525.5,291.5A6,6,0,1,1,537.5,291.5"></path><path id="kity_path_133" fill="none" stroke="gray"></path></g><path id="node_outline14" fill="none" stroke="none" d="M542.5,280.5h37a5,5,0,0,1,5,5v12a5,5,0,0,1,-5,5h-37a5,5,0,0,1,-5,-5v-12a5,5,0,0,1,5,-5z" stroke-width="3"></path><g id="node_text14" fill="black"><text id="kity_text_129" text-rendering="inherit" font-size="12" dy=".8em" y="283.7000000476837" x="547.5">rPPg</text></g></g><g id="minder_node6"><g id="node_expander5" style="cursor: pointer;"><path id="kity_path_68" fill="white" stroke="gray" d="M410.5,239.5A6,6,0,1,1,398.5,239.5A6,6,0,1,1,410.5,239.5"></path><path id="kity_path_69" fill="none" stroke="gray" d="M400,239.5L409,239.5"></path></g><path id="node_outline6" fill="none" stroke="none" d="M415.5,228.5h77a5,5,0,0,1,5,5v12a5,5,0,0,1,-5,5h-77a5,5,0,0,1,-5,-5v-12a5,5,0,0,1,5,-5z" stroke-width="3"></path><g id="node_text6" fill="black"><text id="kity_text_65" text-rendering="inherit" font-size="12" dy=".8em" y="231.70000004768372" x="420.5">multi frame</text></g></g><g id="minder_node18"><g id="node_expander17" style="cursor: pointer;" display="none"><path id="kity_path_184" fill="white" stroke="gray" d="M501.5,353.5A6,6,0,1,1,489.5,353.5A6,6,0,1,1,501.5,353.5"></path><path id="kity_path_185" fill="none" stroke="gray"></path></g><path id="node_outline18" fill="none" stroke="none" d="M506.5,342.5h38a5,5,0,0,1,5,5v12a5,5,0,0,1,-5,5h-38a5,5,0,0,1,-5,-5v-12a5,5,0,0,1,5,-5z" stroke-width="3"></path><g id="node_text18" fill="black"><text id="kity_text_181" text-rendering="inherit" font-size="12" dy=".8em" y="345.7000000476837" x="511.5">CNN</text></g></g><g id="minder_node19"><g id="node_expander18" style="cursor: pointer;" display="none"><path id="kity_path_192" fill="white" stroke="gray" d="M501.5,405.5A6,6,0,1,1,489.5,405.5A6,6,0,1,1,501.5,405.5"></path><path id="kity_path_193" fill="none" stroke="gray"></path></g><path id="node_outline19" fill="none" stroke="none" d="M506.5,394.5h74a5,5,0,0,1,5,5v12a5,5,0,0,1,-5,5h-74a5,5,0,0,1,-5,-5v-12a5,5,0,0,1,5,-5z" stroke-width="3"></path><g id="node_text19" fill="black"><text id="kity_text_189" text-rendering="inherit" font-size="12" dy=".8em" y="397.7000000476837" x="511.5">CNN-LSTM</text></g></g><g id="minder_node20"><g id="node_expander19" style="cursor: pointer;" display="none"><path id="kity_path_200" fill="white" stroke="gray" d="M501.5,457.5A6,6,0,1,1,489.5,457.5A6,6,0,1,1,501.5,457.5"></path><path id="kity_path_201" fill="none" stroke="gray"></path></g><path id="node_outline20" fill="none" stroke="none" d="M506.5,446.5h42a5,5,0,0,1,5,5v12a5,5,0,0,1,-5,5h-42a5,5,0,0,1,-5,-5v-12a5,5,0,0,1,5,-5z" stroke-width="3"></path><g id="node_text20" fill="black"><text id="kity_text_197" text-rendering="inherit" font-size="12" dy=".8em" y="449.7000000476837" x="511.5">Patch</text></g></g><g id="minder_node21"><g id="node_expander20" style="cursor: pointer;" display="none"><path id="kity_path_208" fill="white" stroke="gray" d="M501.5,509.5A6,6,0,1,1,489.5,509.5A6,6,0,1,1,501.5,509.5"></path><path id="kity_path_209" fill="none" stroke="gray"></path></g><path id="node_outline21" fill="none" stroke="none" d="M506.5,498.5h81a5,5,0,0,1,5,5v12a5,5,0,0,1,-5,5h-81a5,5,0,0,1,-5,-5v-12a5,5,0,0,1,5,-5z" stroke-width="3"></path><g id="node_text21" fill="black"><text id="kity_text_205" text-rendering="inherit" font-size="12" dy=".8em" y="501.7000000476837" x="511.5">rPPg+Depth</text></g></g><g id="minder_node22"><g id="node_expander21" style="cursor: pointer;" display="none"><path id="kity_path_216" fill="white" stroke="gray" d="M501.5,561.5A6,6,0,1,1,489.5,561.5A6,6,0,1,1,501.5,561.5"></path><path id="kity_path_217" fill="none" stroke="gray"></path></g><path id="node_outline22" fill="none" stroke="none" d="M506.5,550.5h128a5,5,0,0,1,5,5v12a5,5,0,0,1,-5,5h-128a5,5,0,0,1,-5,-5v-12a5,5,0,0,1,5,-5z" stroke-width="3"></path><g id="node_text22" fill="black"><text id="kity_text_213" text-rendering="inherit" font-size="12" dy=".8em" y="553.7000000476837" x="511.5">Micro-texture + SSD</text></g></g><g id="minder_node23"><g id="node_expander22" style="cursor: pointer;" display="none"><path id="kity_path_254" fill="white" stroke="gray" d="M501.5,619.5A6,6,0,1,1,489.5,619.5A6,6,0,1,1,501.5,619.5"></path><path id="kity_path_255" fill="none" stroke="gray"></path></g><path id="node_outline23" fill="none" stroke="none" d="M506.5,602.5h135a5,5,0,0,1,5,5v24a5,5,0,0,1,-5,5h-135a5,5,0,0,1,-5,-5v-24a5,5,0,0,1,5,-5z" stroke-width="3"></path><g id="node_text23" fill="black"><text id="kity_text_251" text-rendering="inherit" font-size="12" dy=".8em" y="611.7000000476837" x="511.5">De-Spoofing</text></g><g id="kity_g_256"><g id="kity_g_257"><path id="kity_path_258" fill="rgb(236, 255, 179)" stroke="none" d="M589.5,606.5h47v24h-47z"></path><text id="kity_text_259" text-rendering="geometricPrecision" font-size="12" dy="5" x="597.5" fill="rgb(57, 77, 0)" y="618.5">novel</text></g></g></g><g id="minder_node15"><g id="node_expander14" style="cursor: pointer;"><path id="kity_path_148" fill="white" stroke="gray" d="M366.5,489.5A6,6,0,1,1,354.5,489.5A6,6,0,1,1,366.5,489.5"></path><path id="kity_path_149" fill="none" stroke="gray" d="M356,489.5L365,489.5"></path></g><path id="node_outline15" fill="none" stroke="none" d="M371.5,478.5h85a5,5,0,0,1,5,5v12a5,5,0,0,1,-5,5h-85a5,5,0,0,1,-5,-5v-12a5,5,0,0,1,5,-5z" stroke-width="3"></path><g id="node_text15" fill="black"><text id="kity_text_145" text-rendering="inherit" font-size="12" dy=".8em" y="481.7000000476837" x="376.5">single-modal</text></g></g><g id="minder_node24"><g id="node_expander23" style="cursor: pointer;" display="none"><path id="kity_path_266" fill="white" stroke="gray" d="M588.5,677.5A6,6,0,1,1,576.5,677.5A6,6,0,1,1,588.5,677.5"></path><path id="kity_path_267" fill="none" stroke="gray"></path></g><path id="node_outline24" fill="none" stroke="none" d="M593.5,666.5h81a5,5,0,0,1,5,5v12a5,5,0,0,1,-5,5h-81a5,5,0,0,1,-5,-5v-12a5,5,0,0,1,5,-5z" stroke-width="3"></path><g id="node_text24" fill="black"><text id="kity_text_263" text-rendering="inherit" font-size="12" dy=".8em" y="669.7000000476837" x="598.5">CASIA-SURF</text></g></g><g id="minder_node26"><g id="node_expander25" style="cursor: pointer;" display="none"><path id="kity_path_283" fill="white" stroke="gray" d="M801.5,781.5A6,6,0,1,1,789.5,781.5A6,6,0,1,1,801.5,781.5"></path><path id="kity_path_284" fill="none" stroke="gray"></path></g><path id="node_outline26" fill="none" stroke="none" d="M806.5,770.5h58a5,5,0,0,1,5,5v12a5,5,0,0,1,-5,5h-58a5,5,0,0,1,-5,-5v-12a5,5,0,0,1,5,-5z" stroke-width="3"></path><g id="node_text26" fill="black"><text id="kity_text_280" text-rendering="inherit" font-size="12" dy=".8em" y="773.7000000476837" x="811.5">FaceBag</text></g></g><g id="minder_node25"><g id="node_expander24" style="cursor: pointer;"><path id="kity_path_274" fill="white" stroke="gray" d="M588.5,781.5A6,6,0,1,1,576.5,781.5A6,6,0,1,1,588.5,781.5"></path><path id="kity_path_275" fill="none" stroke="gray" d="M578,781.5L587,781.5"></path></g><path id="node_outline25" fill="none" stroke="none" d="M593.5,761.5h163a5,5,0,0,1,5,5v30a5,5,0,0,1,-5,5h-163a5,5,0,0,1,-5,-5v-30a5,5,0,0,1,5,-5z" stroke-width="3"></path><g id="node_text25" fill="black"><text id="kity_text_271" text-rendering="inherit" font-size="12" dy=".8em" y="764.7000000476837" x="598.5">&#xa0;Face Anti-spoofing Attack</text><text id="kity_text_276" text-rendering="inherit" font-size="12" dy=".8em" y="782.7000000476837" x="598.5"> Detection Challenge&#xa0;</text></g></g><g id="minder_node17"><g id="node_expander16" style="cursor: pointer;"><path id="kity_path_176" fill="white" stroke="gray" d="M366.5,733.5A6,6,0,1,1,354.5,733.5A6,6,0,1,1,366.5,733.5"></path><path id="kity_path_177" fill="none" stroke="gray" d="M356,733.5L365,733.5"></path></g><path id="node_outline17" fill="none" stroke="none" d="M371.5,716.5h172a5,5,0,0,1,5,5v24a5,5,0,0,1,-5,5h-172a5,5,0,0,1,-5,-5v-24a5,5,0,0,1,5,-5z" stroke-width="3"></path><g id="node_text17" fill="black"><text id="kity_text_169" text-rendering="inherit" font-size="12" dy=".8em" y="725.7000000476837" x="376.5">multi-modal</text></g><g id="kity_g_170"><g id="kity_g_171"><path id="kity_path_172" fill="rgb(255, 179, 251)" stroke="none" d="M452.5,720.5h86v24h-86z"></path><text id="kity_text_173" text-rendering="geometricPrecision" font-size="12" dy="5" x="460.5" fill="rgb(77, 0, 73)" y="732.5">Depth,IR,etc</text></g></g></g><g id="minder_node27"><g id="node_expander26" style="cursor: pointer;" display="none"><path id="kity_path_390" fill="white" stroke="gray" d="M801.5,833.5A6,6,0,1,1,789.5,833.5A6,6,0,1,1,801.5,833.5"></path><path id="kity_path_391" fill="none" stroke="gray"></path></g><path id="node_outline27" fill="none" stroke="none" d="M806.5,822.5h80a5,5,0,0,1,5,5v12a5,5,0,0,1,-5,5h-80a5,5,0,0,1,-5,-5v-12a5,5,0,0,1,5,-5z" stroke-width="3"></path><g id="node_text27" fill="black"><text id="kity_text_387" text-rendering="inherit" font-size="12" dy=".8em" y="825.7000000476837" x="811.5">FeatherNets</text></g></g><g id="minder_node28" opacity="1"><g id="node_expander27" style="cursor: pointer;" display="none"><path id="kity_path_398" fill="white" stroke="gray" d="M801.5,729.5A6,6,0,1,1,789.5,729.5A6,6,0,1,1,801.5,729.5"></path><path id="kity_path_399" fill="none" stroke="gray"></path></g><path id="node_outline28" fill="none" stroke="none" d="M806.5,718.5h45a5,5,0,0,1,5,5v12a5,5,0,0,1,-5,5h-45a5,5,0,0,1,-5,-5v-12a5,5,0,0,1,5,-5z" stroke-width="3"></path><g id="node_text28" fill="black"><text id="kity_text_395" text-rendering="inherit" font-size="12" dy=".8em" y="721.7000000476837" x="811.5">SENet</text></g></g><g id="kity_g_12" display="none"><path id="kity_path_13" fill="none" stroke="rgb(66, 94, 112)" d="M806.5,718.5h58a5,5,0,0,1,5,5v12a5,5,0,0,1,-5,5h-58a5,5,0,0,1,-5,-5v-12a5,5,0,0,1,5,-5z" stroke-width="5"></path></g></g></g></svg>